<svg xmlns="http://www.w3.org/2000/svg" viewBox="0 0 1123 589" role="img" aria-label="ticket main shape">
  <path d="M 0 26 L 0 44 L 15 53 L 13 63 L 0 70 L 0 86 L 15 96 L 13 105 L 0 112 L 0 127 L 15 137 L 14 146 L 0 155 L 0 170 L 15 180 L 14 189 L 0 197 L 0 212 L 15 222 L 12 234 L 0 240 L 0 254 L 15 264 L 14 273 L 0 283 L 0 296 L 16 310 L 11 320 L 0 324 L 0 339 L 15 349 L 13 360 L 0 368 L 0 381 L 15 391 L 13 402 L 0 409 L 0 424 L 16 435 L 12 445 L 0 452 L 0 466 L 16 477 L 13 486 L 0 494 L 0 508 L 16 518 L 14 528 L 0 535 L 0 555 L 21 567 L 31 587 L 1101 588 L 1110 575 L 1121 572 L 1118 476 L 1122 465 L 1117 458 L 1122 450 L 1118 439 L 1121 357 L 1117 354 L 1122 349 L 1118 335 L 1122 282 L 1117 270 L 1122 262 L 1117 207 L 1122 200 L 1117 187 L 1122 178 L 1118 167 L 1121 19 L 1109 14 L 1103 1 L 30 0 L 15 21 Z" fill="currentColor"/>
</svg>
